<mxfile host="app.diagrams.net" modified="2020-06-01T10:21:57.844Z" agent="5.0 (Macintosh; Intel Mac OS X 10_14_5) AppleWebKit/537.36 (KHTML, like Gecko) Chrome/83.0.4103.61 Safari/537.36 Edg/83.0.478.37" etag="CoB3bYIsfcMm9mll8ZAm" version="13.1.11" type="github">
  <diagram id="E5oJxDQJkD0ybLB3QqsX" name="Page-1">
    <mxGraphModel dx="1833" dy="484" grid="1" gridSize="10" guides="1" tooltips="1" connect="1" arrows="1" fold="1" page="1" pageScale="1" pageWidth="850" pageHeight="1100" math="0" shadow="0">
      <root>
        <mxCell id="0" />
        <mxCell id="1" parent="0" />
        <mxCell id="gUjqs1dUSqgb1AQax-Wq-1" value="" style="swimlane;shadow=0;labelBackgroundColor=#007FFF;strokeColor=#4277BB;fillColor=none;gradientColor=none;fontColor=#000000;align=right;collapsible=0;startSize=0;strokeWidth=2;swimlaneFillColor=none;" parent="1" vertex="1">
          <mxGeometry x="560" y="80" width="280" height="150" as="geometry" />
        </mxCell>
        <mxCell id="gUjqs1dUSqgb1AQax-Wq-4" value="Content Hub" style="text;html=1;align=center;verticalAlign=middle;shadow=0;dashed=0;strokeColor=#6c8ebf;fillColor=#dae8fc;labelBackgroundColor=none;fontStyle=1;fontSize=12;spacingLeft=0;strokeWidth=3;" parent="gUjqs1dUSqgb1AQax-Wq-1" vertex="1">
          <mxGeometry width="280" height="35" as="geometry" />
        </mxCell>
        <mxCell id="gUjqs1dUSqgb1AQax-Wq-11" value="DAM" style="text;html=1;strokeColor=none;fillColor=none;align=center;verticalAlign=middle;whiteSpace=wrap;rounded=0;" parent="gUjqs1dUSqgb1AQax-Wq-1" vertex="1">
          <mxGeometry x="20" y="50" width="40" height="20" as="geometry" />
        </mxCell>
        <mxCell id="gUjqs1dUSqgb1AQax-Wq-12" value="CMP" style="text;html=1;strokeColor=none;fillColor=none;align=center;verticalAlign=middle;whiteSpace=wrap;rounded=0;" parent="gUjqs1dUSqgb1AQax-Wq-1" vertex="1">
          <mxGeometry x="20" y="80" width="40" height="20" as="geometry" />
        </mxCell>
        <mxCell id="byqQUmWDojLQDnQywQ17-7" value="" style="shape=image;imageAspect=0;aspect=fixed;verticalLabelPosition=bottom;verticalAlign=top;image=https://connectoricons-prod.azureedge.net/marketingcontenthub/icon_1.0.1309.1901.png;" vertex="1" parent="gUjqs1dUSqgb1AQax-Wq-1">
          <mxGeometry x="120" y="35" width="60" height="60" as="geometry" />
        </mxCell>
        <mxCell id="byqQUmWDojLQDnQywQ17-3" value="&lt;a href=&quot;https://dev.sitecore.net/Downloads/Sitecore_Plugin_for_Stylelabs_DAM/20/Sitecore_Connect_for_Sitecore_DAM_200.aspx&quot; target=&quot;_blank&quot; style=&quot;font-family: &amp;#34;titillium web&amp;#34; , &amp;#34;helvetica neue&amp;#34; , &amp;#34;helvetica&amp;#34; , &amp;#34;arial&amp;#34; , &amp;#34;microsoft yahei&amp;#34; , sans-serif ; font-size: 10px ; margin: 0px ; padding: 0px ; border: 0px ; outline: 0px ; vertical-align: baseline ; color: rgb(218 , 30 , 37)&quot;&gt;Sitecore Connect™ for Sitecore DAM&lt;/a&gt;&lt;br style=&quot;color: rgb(218 , 30 , 37) ; font-family: &amp;#34;titillium web&amp;#34; , &amp;#34;helvetica neue&amp;#34; , &amp;#34;helvetica&amp;#34; , &amp;#34;arial&amp;#34; , &amp;#34;microsoft yahei&amp;#34; , sans-serif ; font-size: 10px&quot;&gt;&lt;a href=&quot;https://dev.sitecore.net/Downloads/Sitecore_Plugin_for_Stylelabs_DAM/20/Sitecore_Connect_for_Sitecore_DAM_200.aspx&quot; target=&quot;_blank&quot; style=&quot;font-family: &amp;#34;titillium web&amp;#34; , &amp;#34;helvetica neue&amp;#34; , &amp;#34;helvetica&amp;#34; , &amp;#34;arial&amp;#34; , &amp;#34;microsoft yahei&amp;#34; , sans-serif ; font-size: 10px ; margin: 0px ; padding: 0px ; border: 0px ; outline: 0px ; vertical-align: baseline ; color: rgb(218 , 30 , 37)&quot;&gt;Sitecore Connect™ for Sitecore C&lt;/a&gt;&lt;span style=&quot;color: rgb(218 , 30 , 37) ; font-family: &amp;#34;titillium web&amp;#34; , &amp;#34;helvetica neue&amp;#34; , &amp;#34;helvetica&amp;#34; , &amp;#34;arial&amp;#34; , &amp;#34;microsoft yahei&amp;#34; , sans-serif ; font-size: 10px&quot;&gt;MP&lt;/span&gt;" style="edgeStyle=orthogonalEdgeStyle;rounded=0;orthogonalLoop=1;jettySize=auto;html=1;exitX=1;exitY=0.5;exitDx=0;exitDy=0;entryX=0;entryY=0.5;entryDx=0;entryDy=0;" edge="1" parent="1" source="gUjqs1dUSqgb1AQax-Wq-6" target="gUjqs1dUSqgb1AQax-Wq-1">
          <mxGeometry x="-0.0345" y="30" relative="1" as="geometry">
            <mxPoint as="offset" />
          </mxGeometry>
        </mxCell>
        <mxCell id="gUjqs1dUSqgb1AQax-Wq-6" value="" style="swimlane;shadow=0;labelBackgroundColor=#007FFF;strokeColor=#4277BB;fillColor=none;gradientColor=none;fontColor=#000000;align=right;collapsible=0;startSize=0;strokeWidth=2;swimlaneFillColor=none;" parent="1" vertex="1">
          <mxGeometry y="80" width="270" height="150" as="geometry" />
        </mxCell>
        <mxCell id="gUjqs1dUSqgb1AQax-Wq-7" value="Sitecore" style="text;html=1;align=center;verticalAlign=middle;shadow=0;dashed=0;strokeColor=#6c8ebf;fillColor=#dae8fc;labelBackgroundColor=none;fontStyle=1;fontSize=12;spacingLeft=0;strokeWidth=3;" parent="gUjqs1dUSqgb1AQax-Wq-6" vertex="1">
          <mxGeometry width="270" height="35" as="geometry" />
        </mxCell>
        <mxCell id="gUjqs1dUSqgb1AQax-Wq-13" value="XP" style="text;html=1;strokeColor=none;fillColor=none;align=center;verticalAlign=middle;whiteSpace=wrap;rounded=0;" parent="gUjqs1dUSqgb1AQax-Wq-6" vertex="1">
          <mxGeometry x="220" y="60" width="40" height="20" as="geometry" />
        </mxCell>
        <mxCell id="byqQUmWDojLQDnQywQ17-5" value="" style="shape=image;imageAspect=0;aspect=fixed;verticalLabelPosition=bottom;verticalAlign=top;image=https://cdn.iconscout.com/icon/free/png-512/sitecore-2-569212.png;" vertex="1" parent="gUjqs1dUSqgb1AQax-Wq-6">
          <mxGeometry x="112.5" y="35" width="55" height="55" as="geometry" />
        </mxCell>
      </root>
    </mxGraphModel>
  </diagram>
</mxfile>
